<svg width="148" height="245" viewBox="0 0 148 245" fill="none" xmlns="http://www.w3.org/2000/svg">
<g filter="url(#filter0_f_97_50)">
<path d="M121.833 15.5C121.833 21.391 126.609 26.1667 132.5 26.1667C138.391 26.1667 143.167 21.391 143.167 15.5C143.167 9.60896 138.391 4.83333 132.5 4.83333C126.609 4.83333 121.833 9.60896 121.833 15.5ZM4.83333 229.5C4.83333 235.391 9.60896 240.167 15.5 240.167C21.391 240.167 26.1667 235.391 26.1667 229.5C26.1667 223.609 21.391 218.833 15.5 218.833C9.60896 218.833 4.83333 223.609 4.83333 229.5ZM131.329 13.8786L55.78 68.4418L58.1219 71.6846L133.671 17.1214L131.329 13.8786ZM13.5 151.131V229.5H17.5V151.131H13.5ZM55.78 68.4418C29.2281 87.6182 13.5 118.379 13.5 151.131H17.5C17.5 119.663 32.6113 90.1089 58.1219 71.6846L55.78 68.4418Z" fill="#DB1F28"/>
</g>
<defs>
<filter id="filter0_f_97_50" x="0.833252" y="0.833374" width="146.333" height="243.333" filterUnits="userSpaceOnUse" color-interpolation-filters="sRGB">
<feFlood flood-opacity="0" result="BackgroundImageFix"/>
<feBlend mode="normal" in="SourceGraphic" in2="BackgroundImageFix" result="shape"/>
<feGaussianBlur stdDeviation="2" result="effect1_foregroundBlur_97_50"/>
</filter>
</defs>
</svg>
